<svg xmlns="http://www.w3.org/2000/svg" viewBox="0 0 640 440" role="img">
  <defs>
    <linearGradient id="bg" x1="0" x2="1" y1="0" y2="1">
      <stop offset="0" stop-color="#0d1a2e"/>
      <stop offset="1" stop-color="#04070d"/>
    </linearGradient>
    <linearGradient id="blue" x1="0" x2="1">
      <stop offset="0" stop-color="#00a3ff"/>
      <stop offset="1" stop-color="#66f2b1"/>
    </linearGradient>
    <filter id="glow" x="-30%" y="-30%" width="160%" height="160%">
      <feGaussianBlur stdDeviation="4" result="blur"/>
      <feMerge><feMergeNode in="blur"/><feMergeNode in="SourceGraphic"/></feMerge>
    </filter>
    <style>
      .panel{fill:url(#bg);stroke:rgba(255,255,255,.18);stroke-width:2}.line{fill:none;stroke:url(#blue);stroke-width:4;stroke-linecap:round;stroke-linejoin:round}.thin{fill:none;stroke:rgba(255,255,255,.26);stroke-width:2;stroke-linecap:round}.soft{fill:rgba(255,255,255,.07);stroke:rgba(255,255,255,.18);stroke-width:2}.dot{fill:#66f2b1;filter:url(#glow)}.bluefill{fill:#00a3ff}.greenfill{fill:#66f2b1}.text{font:700 30px system-ui,Segoe UI,sans-serif;fill:rgba(255,255,255,.78);letter-spacing:2px}.num{font:900 62px system-ui,Segoe UI,sans-serif;fill:#00a3ff;letter-spacing:-4px}
    </style>
  </defs>
<rect class="panel" x="8" y="8" width="624" height="424" rx="34"/>
  <circle cx="500" cy="96" r="120" fill="rgba(0,163,255,.13)"/>
  <path class="thin" d="M70 325H570"/>
  <path class="soft" d="M110 168h120v157H110z M245 120h118v205H245z M378 185h142v140H378z"/>
  <path class="line" d="M139 236h61m78-45h52m84 59h71"/>
  <circle class="dot" cx="142" cy="236" r="7"/><circle class="dot" cx="280" cy="191" r="7"/><circle class="dot" cx="418" cy="250" r="7"/>
  <path class="thin" d="M140 292h60M276 292h62M415 292h72"/>
  <text class="num" x="70" y="92">1968</text><text class="text" x="74" y="126">FOUNDATION LAB</text>
</svg>