<svg xmlns="http://www.w3.org/2000/svg" viewBox="0 0 640 440" role="img">
  <defs>
    <linearGradient id="bg" x1="0" x2="1" y1="0" y2="1">
      <stop offset="0" stop-color="#0d1a2e"/>
      <stop offset="1" stop-color="#04070d"/>
    </linearGradient>
    <linearGradient id="blue" x1="0" x2="1">
      <stop offset="0" stop-color="#00a3ff"/>
      <stop offset="1" stop-color="#66f2b1"/>
    </linearGradient>
    <filter id="glow" x="-30%" y="-30%" width="160%" height="160%">
      <feGaussianBlur stdDeviation="4" result="blur"/>
      <feMerge><feMergeNode in="blur"/><feMergeNode in="SourceGraphic"/></feMerge>
    </filter>
    <style>
      .panel{fill:url(#bg);stroke:rgba(255,255,255,.18);stroke-width:2}.line{fill:none;stroke:url(#blue);stroke-width:4;stroke-linecap:round;stroke-linejoin:round}.thin{fill:none;stroke:rgba(255,255,255,.26);stroke-width:2;stroke-linecap:round}.soft{fill:rgba(255,255,255,.07);stroke:rgba(255,255,255,.18);stroke-width:2}.dot{fill:#66f2b1;filter:url(#glow)}.bluefill{fill:#00a3ff}.greenfill{fill:#66f2b1}.text{font:700 30px system-ui,Segoe UI,sans-serif;fill:rgba(255,255,255,.78);letter-spacing:2px}.num{font:900 62px system-ui,Segoe UI,sans-serif;fill:#00a3ff;letter-spacing:-4px}
    </style>
  </defs>
<rect class="panel" x="8" y="8" width="624" height="424" rx="34"/>
  <circle cx="145" cy="365" r="150" fill="rgba(102,242,177,.10)"/>
  <rect class="soft" x="215" y="112" width="210" height="210" rx="28"/>
  <rect x="258" y="155" width="124" height="124" rx="18" fill="rgba(0,163,255,.16)" stroke="#00a3ff" stroke-width="3"/>
  <path class="line" d="M320 155V74M320 362v-83M258 217H118M522 217H382"/>
  <path class="thin" d="M270 155v-45M370 155v-45M270 279v45M370 279v45M258 180h-58M258 254h-58M382 180h58M382 254h58"/>
  <circle class="dot" cx="320" cy="74" r="7"/><circle class="dot" cx="118" cy="217" r="7"/><circle class="dot" cx="522" cy="217" r="7"/>
  <text class="num" x="68" y="92">1971</text><text class="text" x="72" y="126">MICROPROCESSOR CORE</text>
</svg>