<svg xmlns="http://www.w3.org/2000/svg" viewBox="0 0 640 440" role="img">
  <defs>
    <linearGradient id="bg" x1="0" x2="1" y1="0" y2="1">
      <stop offset="0" stop-color="#0d1a2e"/>
      <stop offset="1" stop-color="#04070d"/>
    </linearGradient>
    <linearGradient id="blue" x1="0" x2="1">
      <stop offset="0" stop-color="#00a3ff"/>
      <stop offset="1" stop-color="#66f2b1"/>
    </linearGradient>
    <filter id="glow" x="-30%" y="-30%" width="160%" height="160%">
      <feGaussianBlur stdDeviation="4" result="blur"/>
      <feMerge><feMergeNode in="blur"/><feMergeNode in="SourceGraphic"/></feMerge>
    </filter>
    <style>
      .panel{fill:url(#bg);stroke:rgba(255,255,255,.18);stroke-width:2}.line{fill:none;stroke:url(#blue);stroke-width:4;stroke-linecap:round;stroke-linejoin:round}.thin{fill:none;stroke:rgba(255,255,255,.26);stroke-width:2;stroke-linecap:round}.soft{fill:rgba(255,255,255,.07);stroke:rgba(255,255,255,.18);stroke-width:2}.dot{fill:#66f2b1;filter:url(#glow)}.bluefill{fill:#00a3ff}.greenfill{fill:#66f2b1}.text{font:700 30px system-ui,Segoe UI,sans-serif;fill:rgba(255,255,255,.78);letter-spacing:2px}.num{font:900 62px system-ui,Segoe UI,sans-serif;fill:#00a3ff;letter-spacing:-4px}
    </style>
  </defs>
<rect class="panel" x="8" y="8" width="624" height="424" rx="34"/>
  <path class="soft" d="M92 298h456v40H92z M124 206l78-50 82 50 82-50 82 50v92H124z"/>
  <path class="line" d="M116 126c126 36 126 112 260 112 74 0 112-25 148-56"/>
  <path class="thin" d="M160 245h58m38 0h58m38 0h58M166 298v-52m96 52v-52m96 52v-52m96 52v-52"/>
  <circle class="dot" cx="116" cy="126" r="7"/><circle class="dot" cx="524" cy="182" r="7"/>
  <text class="num" x="70" y="92">2022</text><text class="text" x="75" y="126">NET-ZERO PLAN</text>
</svg>