<svg xmlns="http://www.w3.org/2000/svg" viewBox="0 0 640 440" role="img">
  <defs>
    <linearGradient id="bg" x1="0" x2="1" y1="0" y2="1">
      <stop offset="0" stop-color="#0d1a2e"/>
      <stop offset="1" stop-color="#04070d"/>
    </linearGradient>
    <linearGradient id="blue" x1="0" x2="1">
      <stop offset="0" stop-color="#00a3ff"/>
      <stop offset="1" stop-color="#66f2b1"/>
    </linearGradient>
    <filter id="glow" x="-30%" y="-30%" width="160%" height="160%">
      <feGaussianBlur stdDeviation="4" result="blur"/>
      <feMerge><feMergeNode in="blur"/><feMergeNode in="SourceGraphic"/></feMerge>
    </filter>
    <style>
      .panel{fill:url(#bg);stroke:rgba(255,255,255,.18);stroke-width:2}.line{fill:none;stroke:url(#blue);stroke-width:4;stroke-linecap:round;stroke-linejoin:round}.thin{fill:none;stroke:rgba(255,255,255,.26);stroke-width:2;stroke-linecap:round}.soft{fill:rgba(255,255,255,.07);stroke:rgba(255,255,255,.18);stroke-width:2}.dot{fill:#66f2b1;filter:url(#glow)}.bluefill{fill:#00a3ff}.greenfill{fill:#66f2b1}.text{font:700 30px system-ui,Segoe UI,sans-serif;fill:rgba(255,255,255,.78);letter-spacing:2px}.num{font:900 62px system-ui,Segoe UI,sans-serif;fill:#00a3ff;letter-spacing:-4px}
    </style>
  </defs>
<rect class="panel" x="8" y="8" width="624" height="424" rx="34"/>
  <circle cx="320" cy="235" r="118" fill="rgba(0,163,255,.10)" stroke="rgba(0,163,255,.35)" stroke-width="3"/>
  <path class="line" d="M202 235c0-65 53-118 118-118 35 0 66 15 88 39"/>
  <path class="line" d="M438 235c0 65-53 118-118 118-37 0-70-17-91-44"/>
  <path class="soft" d="M156 278h328v58H156z M196 214l58-38 62 38 62-38 66 38v64H196z"/>
  <path class="thin" d="M228 250h42m38 0h42m38 0h42M246 278v-28m82 28v-28m82 28v-28"/>
  <circle class="dot" cx="408" cy="156" r="8"/><circle class="dot" cx="229" cy="309" r="8"/>
  <text class="num" x="70" y="92">2040</text><text class="text" x="75" y="126">NET-ZERO OPERATIONS</text>
</svg>